<svg xmlns="http://www.w3.org/2000/svg" width="403" height="114" viewBox="0 0 403 114" fill="none"><path d="M74.4755 34.8618C70.0908 20.2199 57.132 14.5408 57.132 14.5408C50.5251 11.4475 43.06 10.7026 35.9721 12.4294C28.8842 14.1563 22.5984 18.2515 18.1548 24.0372C13.7112 29.8229 11.3762 36.9524 11.5362 44.2459C11.6962 51.5394 14.3416 58.5596 19.0347 64.1449C23.7277 69.7302 30.1871 73.5457 37.3439 74.9601C44.5007 76.3745 51.9259 75.3029 58.3908 71.9228C64.8557 68.5426 69.9727 63.0565 72.8951 56.3722L66.8793 56.1188L61.4914 55.9263C61.6961 55.9052 57.1965 60.1394 53.0408 62.5462C48.9177 64.7019 44.1573 64.482 39.5929 63.58C35.0286 62.6779 30.909 60.2445 27.9159 56.6824C24.9228 53.1203 23.2357 48.643 23.1336 43.9915C23.0316 39.3399 24.5208 34.793 27.3548 31.103C30.1887 27.4131 34.1976 24.8013 38.7181 23.7C43.2385 22.5986 47.9994 23.0737 52.2131 25.0466C56.4268 27.0194 60.0399 30.6541 62.0889 34.8313L74.4755 34.8618Z" fill="#40AB8A"></path><path d="M30.7847 58.5552C33.3472 51.5312 38.5176 45.4358 44.9998 41.7098C51.482 37.9837 59.0712 36.6649 66.4304 37.9858C73.7896 39.3066 80.4465 43.1823 85.2284 48.93C90.0102 54.6778 92.6101 61.9287 92.57 69.4054C92.53 76.882 89.8525 84.1047 85.0093 89.8008C80.1662 95.497 73.4681 99.3011 66.0952 100.543C58.7222 101.785 51.1476 100.385 44.7057 96.5895C38.2638 92.7942 29.699 82.281 29.699 73.4472C32.9127 75.0603 36.4255 75.9908 40.0164 76.18L40.7225 76.2172C42.2935 80.671 46.5729 84.1164 50.6419 86.5137C54.711 88.911 59.4956 89.7954 64.1527 89.0109C68.8099 88.2265 73.0407 85.8236 76.1 82.2256C79.1592 78.6276 80.8504 74.0654 80.8757 69.3427C80.901 64.62 79.2588 60.0399 76.2383 56.4093C73.2178 52.7788 69.013 50.3307 64.3645 49.4963C59.716 48.662 54.9222 49.495 50.8277 51.8486C46.7332 54.2022 42.8178 58.7966 41.1992 63.2333L39.5226 62.8952C36.2794 62.2411 33.2656 60.7442 30.7847 58.5552Z" fill="#454545"></path><path d="M120.279 52.0181C117.636 52.0181 115.175 51.539 112.895 50.5808C110.648 49.6227 108.682 48.2846 106.997 46.5665C105.312 44.8485 103.991 42.833 103.032 40.5202C102.107 38.2075 101.645 35.6799 101.645 32.9376C101.645 30.1953 102.107 27.6678 103.032 25.355C103.958 23.0092 105.263 20.9938 106.948 19.3087C108.633 17.5907 110.599 16.2691 112.845 15.344C115.125 14.3858 117.603 13.9067 120.279 13.9067C122.955 13.9067 125.351 14.3528 127.465 15.2448C129.613 16.1369 131.43 17.3264 132.917 18.8131C134.404 20.2999 135.461 21.9519 136.089 23.7691L129.299 27.04C128.671 25.2559 127.564 23.7856 125.979 22.6292C124.426 21.4398 122.526 20.8451 120.279 20.8451C118.099 20.8451 116.182 21.3572 114.53 22.3814C112.878 23.4057 111.59 24.8264 110.665 26.6436C109.773 28.4277 109.327 30.5257 109.327 32.9376C109.327 35.3495 109.773 37.4641 110.665 39.2813C111.59 41.0984 112.878 42.5192 114.53 43.5434C116.182 44.5676 118.099 45.0797 120.279 45.0797C122.526 45.0797 124.426 44.5015 125.979 43.3451C127.564 42.1557 128.671 40.6689 129.299 38.8848L136.089 42.1557C135.461 43.9729 134.404 45.6249 132.917 47.1117C131.43 48.5985 129.613 49.7879 127.465 50.68C125.351 51.572 122.955 52.0181 120.279 52.0181Z" fill="#40AB8A"></path><path d="M148.364 52.0181C146.415 52.0181 144.73 51.7042 143.309 51.0764C141.889 50.4487 140.798 49.5566 140.038 48.4002C139.278 47.2108 138.898 45.8066 138.898 44.1877C138.898 42.6678 139.245 41.3297 139.939 40.1733C140.633 38.9839 141.69 37.9927 143.111 37.1998C144.565 36.4068 146.365 35.8451 148.513 35.5147L156.79 34.1766V39.6282L149.851 40.8672C148.794 41.0654 147.984 41.4123 147.423 41.9079C146.861 42.3705 146.58 43.0478 146.58 43.9399C146.58 44.7659 146.894 45.4101 147.522 45.8727C148.15 46.3352 148.926 46.5665 149.851 46.5665C151.074 46.5665 152.147 46.3022 153.073 45.7736C153.998 45.2449 154.708 44.5346 155.204 43.6425C155.732 42.7174 155.997 41.7097 155.997 40.6194V33.5819C155.997 32.5577 155.584 31.6986 154.758 31.0048C153.965 30.311 152.874 29.9641 151.487 29.9641C150.165 29.9641 148.992 30.3275 147.968 31.0544C146.977 31.7812 146.25 32.7394 145.787 33.9288L139.84 31.1039C140.369 29.5841 141.211 28.279 142.368 27.1887C143.524 26.0984 144.912 25.2559 146.531 24.6612C148.15 24.0665 149.917 23.7691 151.834 23.7691C154.113 23.7691 156.129 24.1821 157.88 25.0081C159.631 25.8341 160.986 26.9905 161.944 28.4773C162.935 29.931 163.431 31.6326 163.431 33.5819V51.4234H156.492V47.0621L158.177 46.7648C157.384 47.9542 156.509 48.9454 155.551 49.7383C154.592 50.4982 153.519 51.0599 152.329 51.4234C151.14 51.8198 149.818 52.0181 148.364 52.0181Z" fill="#40AB8A"></path><path d="M181.433 51.7207C178.162 51.7207 175.618 50.8452 173.8 49.0941C172.016 47.3099 171.124 44.8319 171.124 41.6601V30.8066H166.565V24.3638H166.813C168.2 24.3638 169.257 24.0169 169.984 23.3231C170.744 22.6292 171.124 21.5885 171.124 20.2008V18.2184H178.558V24.3638H184.902V30.8066H178.558V41.1645C178.558 42.0896 178.723 42.8661 179.054 43.4938C179.384 44.0885 179.896 44.5346 180.59 44.8319C181.284 45.1293 182.143 45.278 183.167 45.278C183.399 45.278 183.663 45.2614 183.96 45.2284C184.258 45.1954 184.571 45.1623 184.902 45.1293V51.4234C184.406 51.4894 183.845 51.5555 183.217 51.6216C182.589 51.6877 181.994 51.7207 181.433 51.7207Z" fill="#40AB8A"></path><path d="M197.634 52.0181C195.684 52.0181 193.999 51.7042 192.579 51.0764C191.158 50.4487 190.067 49.5566 189.308 48.4002C188.548 47.2108 188.168 45.8066 188.168 44.1877C188.168 42.6678 188.515 41.3297 189.208 40.1733C189.902 38.9839 190.96 37.9927 192.38 37.1998C193.834 36.4068 195.635 35.8451 197.782 35.5147L206.059 34.1766V39.6282L199.12 40.8672C198.063 41.0654 197.254 41.4123 196.692 41.9079C196.13 42.3705 195.849 43.0478 195.849 43.9399C195.849 44.7659 196.163 45.4101 196.791 45.8727C197.419 46.3352 198.195 46.5665 199.12 46.5665C200.343 46.5665 201.417 46.3022 202.342 45.7736C203.267 45.2449 203.977 44.5346 204.473 43.6425C205.001 42.7174 205.266 41.7097 205.266 40.6194V33.5819C205.266 32.5577 204.853 31.6986 204.027 31.0048C203.234 30.311 202.144 29.9641 200.756 29.9641C199.434 29.9641 198.261 30.3275 197.237 31.0544C196.246 31.7812 195.519 32.7394 195.056 33.9288L189.109 31.1039C189.638 29.5841 190.48 28.279 191.637 27.1887C192.793 26.0984 194.181 25.2559 195.8 24.6612C197.419 24.0665 199.186 23.7691 201.103 23.7691C203.383 23.7691 205.398 24.1821 207.149 25.0081C208.9 25.8341 210.255 26.9905 211.213 28.4773C212.204 29.931 212.7 31.6326 212.7 33.5819V51.4234H205.761V47.0621L207.446 46.7648C206.653 47.9542 205.778 48.9454 204.82 49.7383C203.862 50.4982 202.788 51.0599 201.598 51.4234C200.409 51.8198 199.087 52.0181 197.634 52.0181Z" fill="#40AB8A"></path><path d="M218.152 51.4234V13.9067H225.586V51.4234H218.152Z" fill="#40AB8A"></path><path d="M235.238 62.4256C234.445 62.4256 233.669 62.3595 232.909 62.2274C232.182 62.0952 231.538 61.8804 230.976 61.5831V55.4873C231.439 55.6194 231.984 55.735 232.611 55.8342C233.239 55.9333 233.817 55.9828 234.346 55.9828C235.8 55.9828 236.841 55.6359 237.468 54.9421C238.096 54.2483 238.608 53.4553 239.005 52.5632L240.838 48.3507L240.739 54.5456L228.845 24.3638H236.824L244.704 45.8231H241.73L249.61 24.3638H257.589L245.993 53.9509C245.266 55.8342 244.374 57.4036 243.316 58.6591C242.259 59.9146 241.053 60.8562 239.698 61.484C238.377 62.1117 236.89 62.4256 235.238 62.4256Z" fill="#40AB8A"></path><path d="M271.444 52.0181C268.471 52.0181 265.877 51.3242 263.664 49.9366C261.483 48.5159 259.996 46.6161 259.203 44.2372L264.655 41.6601C265.349 43.1139 266.29 44.2537 267.48 45.0797C268.669 45.9057 269.991 46.3187 271.444 46.3187C272.502 46.3187 273.311 46.104 273.873 45.6744C274.435 45.2449 274.715 44.6502 274.715 43.8903C274.715 43.4938 274.616 43.1634 274.418 42.8991C274.22 42.6018 273.922 42.3374 273.526 42.1062C273.13 41.8749 272.634 41.6766 272.039 41.5114L267.43 40.2229C265.216 39.5951 263.515 38.5874 262.326 37.1998C261.136 35.779 260.541 34.1105 260.541 32.1942C260.541 30.5092 260.971 29.0389 261.83 27.7834C262.689 26.5279 263.895 25.5532 265.448 24.8594C267.001 24.1325 268.785 23.7691 270.8 23.7691C273.443 23.7691 275.756 24.3969 277.739 25.6524C279.754 26.8748 281.175 28.6094 282.001 30.8561L276.5 33.4332C276.103 32.3099 275.376 31.4178 274.319 30.757C273.295 30.0632 272.122 29.7163 270.8 29.7163C269.842 29.7163 269.082 29.9145 268.52 30.311C267.992 30.7074 267.728 31.2526 267.728 31.9464C267.728 32.3099 267.827 32.6403 268.025 32.9376C268.223 33.235 268.537 33.4993 268.967 33.7306C269.429 33.9619 269.991 34.1766 270.652 34.3749L274.963 35.6634C277.21 36.3242 278.928 37.3319 280.117 38.6865C281.307 40.0081 281.902 41.6436 281.902 43.5929C281.902 45.278 281.456 46.7482 280.563 48.0037C279.704 49.2593 278.498 50.2505 276.946 50.9773C275.393 51.6712 273.559 52.0181 271.444 52.0181Z" fill="#40AB8A"></path><path d="M299.379 51.7207C296.108 51.7207 293.564 50.8452 291.747 49.0941C289.962 47.3099 289.07 44.8319 289.07 41.6601V30.8066H284.511V24.3638H284.759C286.146 24.3638 287.204 24.0169 287.93 23.3231C288.69 22.6292 289.07 21.5885 289.07 20.2008V18.2184H296.504V24.3638H302.848V30.8066H296.504V41.1645C296.504 42.0896 296.669 42.8661 297 43.4938C297.33 44.0885 297.842 44.5346 298.536 44.8319C299.23 45.1293 300.089 45.278 301.113 45.278C301.345 45.278 301.609 45.2614 301.906 45.2284C302.204 45.1954 302.517 45.1623 302.848 45.1293V51.4234C302.352 51.4894 301.791 51.5555 301.163 51.6216C300.535 51.6877 299.94 51.7207 299.379 51.7207Z" fill="#40AB8A"></path><path d="M121.221 98.6143C118.445 98.6143 115.868 98.1352 113.49 97.177C111.111 96.2189 109.029 94.8808 107.245 93.1627C105.494 91.4116 104.123 89.3797 103.132 87.0669C102.14 84.7541 101.645 82.2431 101.645 79.5338C101.645 76.8246 102.124 74.3135 103.082 72.0008C104.073 69.688 105.444 67.6726 107.195 65.9545C108.98 64.2364 111.061 62.8983 113.44 61.9402C115.819 60.982 118.412 60.5029 121.221 60.5029C124.029 60.5029 126.623 60.982 129.002 61.9402C131.381 62.8983 133.446 64.2364 135.197 65.9545C136.981 67.6726 138.352 69.688 139.31 72.0008C140.301 74.3135 140.797 76.8246 140.797 79.5338C140.797 82.2431 140.301 84.7541 139.31 87.0669C138.319 89.3797 136.931 91.4116 135.147 93.1627C133.396 94.8808 131.331 96.2189 128.952 97.177C126.573 98.1352 123.996 98.6143 121.221 98.6143ZM121.221 91.6759C122.906 91.6759 124.459 91.3786 125.879 90.7838C127.333 90.1891 128.605 89.3631 129.696 88.3059C130.786 87.2156 131.628 85.927 132.223 84.4402C132.818 82.9534 133.115 81.318 133.115 79.5338C133.115 77.7497 132.818 76.1307 132.223 74.677C131.628 73.1902 130.786 71.9016 129.696 70.8113C128.605 69.721 127.333 68.895 125.879 68.3333C124.459 67.7386 122.906 67.4413 121.221 67.4413C119.536 67.4413 117.966 67.7386 116.513 68.3333C115.092 68.895 113.836 69.721 112.746 70.8113C111.656 71.9016 110.813 73.1902 110.219 74.677C109.624 76.1307 109.327 77.7497 109.327 79.5338C109.327 81.318 109.624 82.9534 110.219 84.4402C110.813 85.927 111.656 87.2156 112.746 88.3059C113.836 89.3631 115.092 90.1891 116.513 90.7838C117.966 91.3786 119.536 91.6759 121.221 91.6759Z" fill="#454545"></path><path d="M155.413 98.6143C153.233 98.6143 151.366 98.1517 149.813 97.2266C148.293 96.2684 147.137 94.9469 146.344 93.2618C145.551 91.5768 145.155 89.6109 145.155 87.3642V70.96H152.589V86.7695C152.589 87.7938 152.787 88.7023 153.183 89.4953C153.613 90.2552 154.208 90.8499 154.967 91.2794C155.727 91.709 156.586 91.9237 157.545 91.9237C158.536 91.9237 159.395 91.709 160.122 91.2794C160.882 90.8499 161.46 90.2552 161.856 89.4953C162.286 88.7023 162.5 87.7938 162.5 86.7695V70.96H169.934V98.0196H162.996V92.6671L163.393 93.8565C162.765 95.4755 161.741 96.6814 160.32 97.4744C158.932 98.2343 157.297 98.6143 155.413 98.6143Z" fill="#454545"></path><path d="M188.402 98.3169C185.131 98.3169 182.587 97.4414 180.77 95.6903C178.986 93.9061 178.094 91.4281 178.094 88.2563V77.4028H173.534V70.96H173.782C175.17 70.96 176.227 70.6131 176.954 69.9193C177.714 69.2254 178.094 68.1847 178.094 66.797V64.8146H185.528V70.96H191.871V77.4028H185.528V87.7607C185.528 88.6858 185.693 89.4623 186.023 90.09C186.354 90.6847 186.866 91.1308 187.559 91.4281C188.253 91.7255 189.112 91.8742 190.137 91.8742C190.368 91.8742 190.632 91.8576 190.93 91.8246C191.227 91.7916 191.541 91.7585 191.871 91.7255V98.0196C191.376 98.0856 190.814 98.1517 190.186 98.2178C189.558 98.2839 188.964 98.3169 188.402 98.3169Z" fill="#454545"></path><path d="M206.833 98.6143C203.86 98.6143 201.266 97.9204 199.052 96.5328C196.872 95.1121 195.385 93.2123 194.592 90.8334L200.043 88.2563C200.737 89.7101 201.679 90.8499 202.868 91.6759C204.058 92.5019 205.379 92.9149 206.833 92.9149C207.89 92.9149 208.7 92.7002 209.262 92.2706C209.823 91.8411 210.104 91.2464 210.104 90.4865C210.104 90.09 210.005 89.7596 209.807 89.4953C209.608 89.1979 209.311 88.9336 208.915 88.7023C208.518 88.4711 208.023 88.2728 207.428 88.1076L202.819 86.8191C200.605 86.1913 198.904 85.1836 197.714 83.7959C196.525 82.3752 195.93 80.7067 195.93 78.7904C195.93 77.1054 196.36 75.6351 197.219 74.3796C198.078 73.1241 199.284 72.1494 200.836 71.4556C202.389 70.7287 204.173 70.3653 206.189 70.3653C208.832 70.3653 211.145 70.993 213.127 72.2486C215.143 73.471 216.563 75.2056 217.389 77.4523L211.888 80.0294C211.492 78.9061 210.765 78.014 209.708 77.3532C208.683 76.6594 207.51 76.3124 206.189 76.3124C205.231 76.3124 204.471 76.5107 203.909 76.9072C203.38 77.3036 203.116 77.8488 203.116 78.5426C203.116 78.9061 203.215 79.2365 203.413 79.5338C203.612 79.8312 203.926 80.0955 204.355 80.3268C204.818 80.558 205.379 80.7728 206.04 80.971L210.352 82.2596C212.599 82.9204 214.317 83.9281 215.506 85.2827C216.695 86.6043 217.29 88.2398 217.29 90.1891C217.29 91.8742 216.844 93.3444 215.952 94.5999C215.093 95.8554 213.887 96.8466 212.334 97.5735C210.781 98.2673 208.948 98.6143 206.833 98.6143Z" fill="#454545"></path><path d="M235.164 98.6143C232.488 98.6143 230.043 98.003 227.829 96.7806C225.648 95.5581 223.897 93.8896 222.576 91.775C221.287 89.6275 220.643 87.199 220.643 84.4898C220.643 81.7475 221.287 79.3191 222.576 77.2045C223.897 75.09 225.648 73.4215 227.829 72.199C230.043 70.9765 232.488 70.3653 235.164 70.3653C237.84 70.3653 240.268 70.9765 242.449 72.199C244.63 73.4215 246.364 75.09 247.653 77.2045C248.974 79.3191 249.635 81.7475 249.635 84.4898C249.635 87.199 248.974 89.6275 247.653 91.775C246.364 93.8896 244.63 95.5581 242.449 96.7806C240.268 98.003 237.84 98.6143 235.164 98.6143ZM235.164 91.9237C236.518 91.9237 237.691 91.6098 238.683 90.9821C239.707 90.3543 240.5 89.4788 241.061 88.3554C241.656 87.2321 241.953 85.9435 241.953 84.4898C241.953 83.036 241.656 81.764 241.061 80.6737C240.5 79.5503 239.707 78.6748 238.683 78.047C237.691 77.3862 236.518 77.0558 235.164 77.0558C233.809 77.0558 232.62 77.3862 231.595 78.047C230.571 78.6748 229.762 79.5503 229.167 80.6737C228.605 81.764 228.325 83.036 228.325 84.4898C228.325 85.9435 228.605 87.2321 229.167 88.3554C229.762 89.4788 230.571 90.3543 231.595 90.9821C232.62 91.6098 233.809 91.9237 235.164 91.9237Z" fill="#454545"></path><path d="M263.728 98.6143C261.548 98.6143 259.681 98.1517 258.128 97.2266C256.608 96.2684 255.452 94.9469 254.659 93.2618C253.866 91.5768 253.469 89.6109 253.469 87.3642V70.96H260.903V86.7695C260.903 87.7938 261.102 88.7023 261.498 89.4953C261.928 90.2552 262.522 90.8499 263.282 91.2794C264.042 91.709 264.901 91.9237 265.859 91.9237C266.851 91.9237 267.71 91.709 268.436 91.2794C269.196 90.8499 269.775 90.2552 270.171 89.4953C270.601 88.7023 270.815 87.7938 270.815 86.7695V70.96H278.249V98.0196H271.311V92.6671L271.707 93.8565C271.08 95.4755 270.055 96.6814 268.635 97.4744C267.247 98.2343 265.612 98.6143 263.728 98.6143Z" fill="#454545"></path><path d="M283.683 98.0196V70.96H290.621V77.4523L290.125 76.5107C290.72 74.2309 291.695 72.6946 293.049 71.9016C294.437 71.0756 296.073 70.6626 297.956 70.6626H299.542V77.1054H297.212C295.395 77.1054 293.925 77.6671 292.802 78.7904C291.678 79.8807 291.117 81.4336 291.117 83.449V98.0196H283.683Z" fill="#454545"></path><path d="M316.082 98.6143C313.373 98.6143 310.928 98.003 308.747 96.7806C306.599 95.5251 304.881 93.8235 303.593 91.6759C302.337 89.5283 301.71 87.1164 301.71 84.4402C301.71 81.764 302.337 79.3686 303.593 77.2541C304.848 75.1065 306.566 73.4215 308.747 72.199C310.928 70.9765 313.373 70.3653 316.082 70.3653C318.097 70.3653 319.964 70.7122 321.682 71.406C323.4 72.0999 324.87 73.0745 326.093 74.3301C327.315 75.5525 328.191 77.0063 328.72 78.6913L322.277 81.4666C321.814 80.112 321.021 79.0382 319.898 78.2453C318.808 77.4523 317.536 77.0558 316.082 77.0558C314.793 77.0558 313.637 77.3697 312.613 77.9975C311.621 78.6252 310.829 79.5008 310.234 80.6241C309.672 81.7475 309.391 83.036 309.391 84.4898C309.391 85.9435 309.672 87.2321 310.234 88.3554C310.829 89.4788 311.621 90.3543 312.613 90.9821C313.637 91.6098 314.793 91.9237 316.082 91.9237C317.569 91.9237 318.857 91.5272 319.947 90.7343C321.038 89.9413 321.814 88.8675 322.277 87.5129L328.72 90.3378C328.224 91.9237 327.365 93.3444 326.142 94.5999C324.92 95.8554 323.45 96.8466 321.732 97.5735C320.014 98.2673 318.13 98.6143 316.082 98.6143Z" fill="#454545"></path><path d="M333.097 98.0196V70.96H340.531V98.0196H333.097ZM333.097 68.5316V61.0976H340.531V68.5316H333.097Z" fill="#454545"></path><path d="M345.971 98.0196V70.96H352.909V76.3124L352.513 75.123C353.141 73.5041 354.148 72.3146 355.536 71.5547C356.957 70.7618 358.609 70.3653 360.492 70.3653C362.54 70.3653 364.324 70.7948 365.844 71.6538C367.397 72.5129 368.603 73.7188 369.462 75.2717C370.321 76.7915 370.751 78.5757 370.751 80.6241V98.0196H363.317V82.21C363.317 81.1528 363.102 80.2442 362.673 79.4843C362.276 78.7243 361.698 78.1296 360.938 77.7001C360.211 77.2706 359.352 77.0558 358.361 77.0558C357.403 77.0558 356.544 77.2706 355.784 77.7001C355.024 78.1296 354.429 78.7243 354 79.4843C353.603 80.2442 353.405 81.1528 353.405 82.21V98.0196H345.971Z" fill="#454545"></path><path d="M388.921 108.923C386.839 108.923 384.907 108.576 383.122 107.882C381.338 107.188 379.802 106.213 378.513 104.958C377.258 103.735 376.349 102.282 375.788 100.597L382.676 98.1682C383.04 99.4237 383.783 100.415 384.907 101.142C386.03 101.869 387.368 102.232 388.921 102.232C390.143 102.232 391.201 102.001 392.093 101.538C392.985 101.109 393.662 100.464 394.125 99.6055C394.62 98.7464 394.868 97.7387 394.868 96.5823V90.3874L396.305 92.1715C395.38 93.6913 394.191 94.8312 392.737 95.5911C391.283 96.318 389.582 96.6814 387.632 96.6814C385.121 96.6814 382.875 96.1198 380.892 94.9964C378.91 93.84 377.357 92.2706 376.234 90.2883C375.11 88.2728 374.549 85.9931 374.549 83.449C374.549 80.905 375.11 78.6583 376.234 76.7089C377.357 74.7265 378.893 73.1737 380.843 72.0503C382.792 70.927 385.006 70.3653 387.484 70.3653C389.433 70.3653 391.135 70.7618 392.588 71.5547C394.042 72.3146 395.281 73.4875 396.305 75.0735L395.364 76.8576V70.96H402.302V96.5823C402.302 98.9612 401.724 101.076 400.567 102.926C399.411 104.809 397.825 106.279 395.81 107.337C393.827 108.394 391.531 108.923 388.921 108.923ZM388.673 89.9413C389.929 89.9413 391.019 89.677 391.944 89.1484C392.869 88.6197 393.58 87.8764 394.075 86.9182C394.604 85.96 394.868 84.8367 394.868 83.5481C394.868 82.2596 394.604 81.1362 394.075 80.1781C393.546 79.1869 392.82 78.427 391.895 77.8984C390.969 77.3367 389.896 77.0558 388.673 77.0558C387.418 77.0558 386.294 77.3367 385.303 77.8984C384.345 78.427 383.585 79.1869 383.023 80.1781C382.495 81.1362 382.23 82.2596 382.23 83.5481C382.23 84.8037 382.495 85.9105 383.023 86.8686C383.585 87.8268 384.345 88.5867 385.303 89.1484C386.294 89.677 387.418 89.9413 388.673 89.9413Z" fill="#454545"></path></svg>