<?xml version="1.0" encoding="UTF-8" standalone="no"?>
<!-- Created with Inkscape (http://www.inkscape.org/) -->

<svg
   version="1.1"
   id="svg1"
   width="910.26666"
   height="518.44"
   viewBox="0 0 910.26666 518.44"
   sodipodi:docname="EASE-Logo-053124_ease_solutions.eps"
   xmlns:inkscape="http://www.inkscape.org/namespaces/inkscape"
   xmlns:sodipodi="http://sodipodi.sourceforge.net/DTD/sodipodi-0.dtd"
   xmlns="http://www.w3.org/2000/svg"
   xmlns:svg="http://www.w3.org/2000/svg">
  <defs
     id="defs1" />
  <sodipodi:namedview
     id="namedview1"
     pagecolor="#ffffff"
     bordercolor="#000000"
     borderopacity="0.25"
     inkscape:showpageshadow="2"
     inkscape:pageopacity="0.0"
     inkscape:pagecheckerboard="0"
     inkscape:deskcolor="#d1d1d1">
    <inkscape:page
       x="0"
       y="0"
       inkscape:label="1"
       id="page1"
       width="910.26666"
       height="518.44"
       margin="0"
       bleed="0" />
  </sodipodi:namedview>
  <g
     id="g1"
     inkscape:groupmode="layer"
     inkscape:label="1">
    <g
       id="group-R5">
      <path
         id="path2"
         d="m 2382.42,1748.66 c -4.09,2.45 -8.95,3.72 -13.67,3.72 -2.74,0 -5.21,-1.04 -7.83,-1.75 -1.2,-0.42 -2.6,-0.29 -3.8,-0.77 l -662.6,-228.65 -306.21,-101.68 -201.59,-69.61 -395.493,-128.38 -0.141,-0.05 -4.231,-1.35 c -6.132,-2.4 -16.765,-8.54 -16.765,-25.09 V 713.32 c 0,-8.441 4.793,-16.41 12.68,-21.05 3.949,-2.399 8.878,-3.602 13.597,-3.602 2.688,0 5.293,0.902 7.754,1.672 l 584.189,201.82 306.21,101.719 239.07,82.671 44.81,14.58 12.05,3.8 c 63.69,23.24 114.91,47.41 131.75,55.68 259.72,144.36 265.15,359.41 272.76,495.39 v 81.59 c 0,8.44 -4.8,16.48 -12.54,21.07"
         style="fill:#f26a20;fill-opacity:1;fill-rule:nonzero;stroke:none"
         transform="matrix(0.13333333,0,0,-0.13333333,0,518.44)" />
      <path
         id="path3"
         d="m 2382.42,3195.89 c -4.09,2.4 -8.95,3.74 -13.67,3.74 -2.74,0 -5.21,-1.06 -7.83,-1.84 l -666.4,-230.11 -306.21,-101.75 -156.85,-54.18 -44.74,-14.58 -12.05,-3.88 c -63.63,-23.25 -114.85,-47.42 -131.76,-55.67 C 783.336,2593.25 777.766,2378.14 770.09,2242.15 v -81.59 c 0,-8.39 4.793,-16.34 12.68,-21.07 3.949,-2.39 8.878,-3.59 13.597,-3.59 2.688,0 5.293,0.99 7.754,1.62 1.332,0.49 2.742,0.42 3.883,0.99 l 580.306,200.1 306.21,101.74 283.88,97.95 395.49,128.37 v 0.07 h 0.14 l 4.16,1.41 c 6.2,2.26 16.77,8.46 16.77,24.94 v 481.73 c 0,8.47 -4.8,16.42 -12.54,21.07"
         style="fill:#f26a20;fill-opacity:1;fill-rule:nonzero;stroke:none"
         transform="matrix(0.13333333,0,0,-0.13333333,0,518.44)" />
      <path
         id="path4"
         d="m 2382.42,2474.03 c -4.09,2.33 -8.95,3.6 -13.67,3.6 -2.74,0 -5.21,-0.99 -7.83,-1.69 -1.2,-0.42 -2.6,-0.28 -3.8,-0.85 l -662.6,-228.64 -306.21,-101.6 -201.59,-69.62 -399.865,-129.86 c -6.132,-2.32 -16.765,-8.52 -16.765,-24.94 v -481.8 c 0,-8.38 4.793,-16.42 12.68,-20.99 3.949,-2.4 8.878,-3.67 13.597,-3.67 2.688,0 5.293,0.92 7.754,1.7 1.332,0.34 2.742,0.27 3.883,0.77 l 580.306,200.24 306.21,101.75 283.88,97.95 395.49,128.43 0.07,0.08 h 0.07 l 4.16,1.26 v 0.07 c 6.2,2.32 16.77,8.45 16.77,25.02 v 481.73 c 0,8.45 -4.8,16.34 -12.54,21.06"
         style="fill:#f26a20;fill-opacity:1;fill-rule:nonzero;stroke:none"
         transform="matrix(0.13333333,0,0,-0.13333333,0,518.44)" />
      <path
         id="path5"
         d="m 2943.87,2361.19 c 0,29.13 6.37,58.51 19.11,88.23 12.74,29.7 30.63,56.67 53.67,80.93 23.01,24.26 51.2,43.96 84.58,59.13 33.34,15.15 70.03,22.73 110.03,22.73 41.21,0 77.3,-6.37 108.24,-19.1 30.91,-12.71 56.67,-30.32 77.3,-52.74 20.61,-22.45 36.07,-48.83 46.37,-79.11 10.3,-30.35 16.08,-63.66 17.3,-100.07 z m 594.81,237.38 c -33.97,43.02 -77.31,77.9 -130.04,104.59 -52.77,26.66 -117.33,40.03 -193.73,40.03 -64.29,0 -123.7,-11.55 -178.25,-34.56 -54.57,-23.05 -101.59,-54.89 -140.96,-95.51 -39.43,-40.62 -70.34,-88.51 -92.79,-143.68 -22.45,-55.2 -33.63,-114.9 -33.63,-179.19 0,-64.28 10.27,-123.97 30.91,-179.15 20.61,-55.19 50.02,-103.09 88.23,-143.71 38.19,-40.62 84.86,-72.47 140.03,-95.47 55.17,-23.05 116.71,-34.57 184.65,-34.57 163.69,0 291.01,58.79 381.96,176.44 l -123.7,94.57 c -31.53,-38.81 -66.09,-70.03 -103.65,-93.67 -37.62,-23.63 -81.87,-35.47 -132.79,-35.47 -37.59,0 -73.99,6.06 -109.15,18.21 -35.19,12.08 -66.09,29.09 -92.76,50.92 -26.69,21.82 -48.2,48.21 -64.57,79.11 -16.36,30.95 -24.57,65.17 -24.57,102.79 h 691.22 v 58.19 c 0,55.77 -7.59,110.65 -22.73,164.6 -15.2,53.96 -39.75,102.47 -73.68,145.53"
         style="fill:#313334;fill-opacity:1;fill-rule:nonzero;stroke:none"
         transform="matrix(0.13333333,0,0,-0.13333333,0,518.44)" />
      <path
         id="path6"
         d="m 4268.08,2219.32 c 0,-29.1 -4.28,-58.51 -12.74,-88.2 -8.49,-29.73 -22.45,-56.7 -41.84,-80.96 -19.39,-24.26 -44.86,-43.96 -76.4,-59.1 -31.53,-15.18 -69.72,-22.73 -114.58,-22.73 -57.01,0 -102.16,10.89 -135.5,32.72 -33.38,21.82 -50.02,57.57 -50.02,107.31 0,33.94 10.58,61.85 31.82,83.67 21.19,21.83 48.48,38.81 81.86,50.95 33.34,12.09 70.31,20.3 110.96,24.54 40.59,4.25 80.3,6.37 119.14,6.37 h 87.3 z m 160.07,-360.14 c -2.44,23.01 -4.28,47.3 -5.46,72.74 -1.22,25.48 -1.81,53.36 -1.81,83.68 v 440.19 c 0,37.56 -7,73.66 -20.92,108.22 -13.96,34.56 -35.47,65.19 -64.57,91.85 -29.13,26.66 -66.41,47.89 -111.87,63.66 -45.49,15.77 -99.75,23.67 -162.79,23.67 -60.66,0 -121.29,-10.65 -181.89,-31.85 -60.67,-21.23 -114.03,-53.04 -160.08,-95.47 l 98.23,-101.88 c 14.55,10.93 29.69,22.42 45.46,34.56 15.76,12.12 33.34,22.73 52.76,31.85 19.39,9.08 40.93,16.64 64.57,22.73 23.63,6.05 51.2,9.08 82.76,9.08 35.16,0 65.48,-5.18 90.95,-15.45 25.45,-10.3 46.65,-24.26 63.66,-41.84 16.96,-17.58 29.7,-37.28 38.19,-59.1 8.46,-21.86 12.74,-43.68 12.74,-65.5 v -36.38 h -120.05 c -65.47,0 -127.04,-5.18 -184.61,-15.45 -57.61,-10.34 -107.97,-27.29 -150.99,-50.92 -43.06,-23.67 -77.03,-54.3 -101.85,-91.86 -24.88,-37.62 -37.31,-84.3 -37.31,-140.06 0,-42.46 7.9,-79.77 23.67,-111.87 15.73,-32.15 37.28,-59.13 64.57,-80.95 27.28,-21.83 59.1,-38.19 95.5,-49.12 36.38,-10.89 74.56,-16.36 114.59,-16.36 65.47,0 123.04,11.52 172.78,34.57 49.73,23 92.79,62.44 129.16,118.23 h 3.62 c 0,-43.68 1.85,-87.32 5.47,-130.97 h 145.52"
         style="fill:#313334;fill-opacity:1;fill-rule:nonzero;stroke:none"
         transform="matrix(0.13333333,0,0,-0.13333333,0,518.44)" />
      <path
         id="path7"
         d="m 4929.26,1851.9 c 41.83,9.68 79.11,25.48 111.86,47.3 32.73,21.83 59.39,50.02 80.03,84.58 20.6,34.56 30.94,76.09 30.94,124.58 0,0.04 -0.01,0.07 -0.01,0.1 0,-0.03 0,-0.07 0,-0.11 0,0.2 -0.02,0.37 -0.01,0.56 -0.03,15.23 -1.25,29.32 -3.13,42.8 -19.74,124.22 -138.13,180.91 -259.08,201.24 -64.78,10.78 -139.78,20.39 -191.45,68.5 -39.44,34.73 -43.37,102.07 -5.65,140.31 56.22,50.7 136.25,55.04 206.68,38.13 46.7,-13.7 87.61,-45.58 119.2,-81.7 l 109.78,83.13 c -31.53,50.92 -73.96,87.29 -127.32,109.12 -53.36,21.82 -109.12,32.75 -167.35,32.75 -39.99,0 -79.74,-5.47 -119.14,-16.4 -39.4,-10.89 -74.56,-27.25 -105.5,-49.1 -30.91,-21.83 -55.79,-49.43 -74.56,-82.74 -18.82,-33.38 -28.19,-72.5 -28.19,-117.33 0,-0.03 0,-0.06 0,-0.09 0.01,0.03 0,0.06 0.01,0.09 8.82,-309.06 406.26,-172.67 479.54,-347.55 29.4,-86.54 -65.21,-147.27 -137.58,-153.62 -72.56,-13.77 -155.88,4.2 -213.95,52.32 -18.32,13.23 -39.2,33.84 -56.29,50.41 l -108.13,-89.03 c 42.46,-58.23 90.63,-98.22 144.62,-120.05 53.95,-21.85 116.7,-32.75 188.26,-32.75 42.43,0 84.58,4.87 126.42,14.55"
         style="fill:#313334;fill-opacity:1;fill-rule:nonzero;stroke:none"
         transform="matrix(0.13333333,0,0,-0.13333333,0,518.44)" />
      <path
         id="path8"
         d="m 5376.7,2449.42 c 12.7,29.7 30.59,56.67 53.64,80.93 23.04,24.26 51.23,43.96 84.57,59.13 33.35,15.15 70.03,22.73 110.06,22.73 41.21,0 77.3,-6.37 108.21,-19.1 30.94,-12.71 56.7,-30.32 77.31,-52.74 20.61,-22.45 36.09,-48.83 46.39,-79.11 10.31,-30.35 16.05,-63.66 17.27,-100.07 h -516.56 c 0,29.13 6.37,58.51 19.11,88.23 z m -74.59,-482.03 c 38.18,-40.62 84.86,-72.47 140.06,-95.47 55.17,-23.05 116.7,-34.57 184.61,-34.57 163.73,0 291.05,58.79 382,176.44 l -123.7,94.57 c -31.54,-38.81 -66.1,-70.03 -103.69,-93.67 -37.59,-23.63 -81.83,-35.47 -132.78,-35.47 -37.6,0 -73.97,6.06 -109.12,18.21 -35.19,12.08 -66.13,29.09 -92.76,50.92 -26.7,21.82 -48.21,48.21 -64.6,79.11 -16.36,30.95 -24.54,65.17 -24.54,102.79 h 691.18 v 58.19 c 0,55.77 -7.58,110.65 -22.73,164.6 -15.17,53.96 -39.74,102.47 -73.65,145.53 -33.97,43.02 -77.3,77.9 -130.07,104.59 -52.73,26.66 -117.33,40.03 -193.7,40.03 -64.31,0 -123.7,-11.55 -178.27,-34.56 -54.58,-23.05 -101.57,-54.89 -140.97,-95.51 -39.4,-40.62 -70.34,-88.51 -92.76,-143.68 -22.45,-55.2 -33.65,-114.9 -33.65,-179.19 0,-64.28 10.3,-123.97 30.94,-179.15 20.57,-55.19 50.01,-103.09 88.2,-143.71"
         style="fill:#313334;fill-opacity:1;fill-rule:nonzero;stroke:none"
         transform="matrix(0.13333333,0,0,-0.13333333,0,518.44)" />
      <path
         id="path9"
         d="m 3107.48,1347.8 c -11.5,9.93 -25.14,17.98 -40.94,24.19 -15.83,6.19 -32.75,11.46 -50.73,15.8 -9.31,1.88 -20.45,4.03 -33.47,6.53 -13.05,2.46 -25.29,6.18 -36.78,11.17 -11.46,4.94 -21.39,11.46 -29.76,19.55 -8.36,8.02 -12.58,18.61 -12.58,31.63 0,16.11 7.31,28.38 21.89,36.75 14.55,8.36 31.78,12.55 51.64,12.55 21.07,0 38.9,-4.19 53.48,-12.55 14.58,-8.37 26.82,-18.77 36.78,-31.16 l 65.13,49.3 c -16.14,26.07 -37.84,44.67 -65.13,55.82 -27.32,11.18 -55.86,16.77 -85.61,16.77 -20.48,0 -40.8,-2.81 -60.94,-8.4 -20.17,-5.56 -38.16,-13.96 -53.98,-25.11 -15.8,-11.17 -28.54,-25.28 -38.16,-42.33 -9.62,-17.08 -14.42,-37.09 -14.42,-60.01 0,-21.1 3.74,-38.78 11.17,-53.04 7.47,-14.27 17.36,-26.07 29.79,-35.38 12.39,-9.3 26.66,-16.73 42.8,-22.32 16.12,-5.59 33.16,-10.56 51.18,-14.9 9.3,-1.84 19.98,-4.18 32.09,-6.96 12.09,-2.81 23.58,-6.52 34.44,-11.17 10.83,-4.66 20.14,-11.03 27.91,-19.08 7.75,-8.06 11.62,-18.3 11.62,-30.69 0,-9.31 -2.66,-17.55 -7.9,-24.67 -5.28,-7.15 -12.12,-13.02 -20.48,-17.67 -8.37,-4.65 -17.99,-8.09 -28.85,-10.24 -10.87,-2.19 -21.54,-3.25 -32.1,-3.25 -24.2,0 -44.65,5.25 -61.41,15.8 -16.74,10.55 -31.94,22.64 -45.59,36.31 l -63.28,-52.11 c 21.73,-29.78 46.36,-50.26 73.99,-61.41 27.57,-11.18 59.7,-16.76 96.29,-16.76 21.7,0 43.28,2.49 64.66,7.46 21.42,4.96 40.5,13.02 57.23,24.19 16.77,11.15 30.38,25.57 40.93,43.24 10.56,17.71 15.83,38.94 15.83,63.76 0,20.45 -3.24,37.81 -9.77,52.11 -6.49,14.27 -15.52,26.35 -26.97,36.28"
         style="fill:#313334;fill-opacity:1;fill-rule:nonzero;stroke:none"
         transform="matrix(0.13333333,0,0,-0.13333333,0,518.44)" />
      <path
         id="path10"
         d="m 3534.06,1290.57 c -6.84,-18.92 -16.43,-35.03 -28.85,-48.4 -12.4,-13.33 -27.6,-23.88 -45.59,-31.62 -17.98,-7.74 -38.15,-11.62 -60.47,-11.62 -22.33,0 -42.49,3.88 -60.48,11.62 -17.98,7.74 -33.19,18.29 -45.58,31.62 -12.43,13.37 -22.05,29.48 -28.85,48.4 -6.84,18.92 -10.24,39.56 -10.24,61.88 0,22.32 3.4,42.96 10.24,61.88 6.8,18.92 16.42,35.03 28.85,48.36 12.39,13.33 27.6,23.89 45.58,31.66 17.99,7.74 38.15,11.62 60.48,11.62 22.32,0 42.49,-3.88 60.47,-11.62 17.99,-7.77 33.19,-18.33 45.59,-31.66 12.42,-13.33 22.01,-29.44 28.85,-48.36 6.83,-18.92 10.24,-39.56 10.24,-61.88 0,-22.32 -3.41,-42.96 -10.24,-61.88 z m 31.66,225.64 c -21.11,21.07 -45.93,37.68 -74.47,49.77 -28.54,12.11 -59.23,18.17 -92.1,18.17 -32.88,0 -63.6,-6.06 -92.11,-18.17 -28.53,-12.09 -53.35,-28.7 -74.43,-49.77 -21.1,-21.11 -37.68,-45.58 -49.8,-73.5 -12.08,-27.91 -18.14,-58.01 -18.14,-90.26 0,-32.25 6.06,-62.51 18.14,-90.73 12.12,-28.22 28.7,-52.73 49.8,-73.5 21.08,-20.79 45.9,-37.21 74.43,-49.3 28.51,-12.11 59.23,-18.16 92.11,-18.16 32.87,0 63.56,6.05 92.1,18.16 28.54,12.09 53.36,28.51 74.47,49.3 21.07,20.77 37.68,45.28 49.76,73.5 12.09,28.22 18.14,58.48 18.14,90.73 0,32.25 -6.05,62.35 -18.14,90.26 -12.08,27.92 -28.69,52.39 -49.76,73.5"
         style="fill:#313334;fill-opacity:1;fill-rule:nonzero;stroke:none"
         transform="matrix(0.13333333,0,0,-0.13333333,0,518.44)" />
      <path
         id="path11"
         d="m 3685.73,1131.93 h 83.74 v 606.67 h -83.74 v -606.67"
         style="fill:#313334;fill-opacity:1;fill-rule:nonzero;stroke:none"
         transform="matrix(0.13333333,0,0,-0.13333333,0,518.44)" />
      <path
         id="path12"
         d="m 4150.03,1345.92 c 0,-25.44 -3.12,-47.42 -9.31,-66.06 -6.21,-18.61 -14.89,-33.94 -26.04,-46.05 -11.17,-12.09 -24.19,-20.92 -39.08,-26.51 -14.9,-5.59 -31.04,-8.37 -48.4,-8.37 -13.02,0 -25.57,2 -37.68,6.03 -12.08,4.03 -22.79,10.55 -32.1,19.54 -9.3,9 -16.73,20.8 -22.32,35.38 -5.59,14.55 -8.37,32.09 -8.37,52.58 v 260.51 h -83.74 v -283.81 c 0,-29.16 4.31,-54.41 13.03,-75.8 8.67,-21.42 20.29,-38.94 34.87,-52.58 14.58,-13.64 31.47,-23.73 50.7,-30.25 19.23,-6.5 39.72,-9.77 61.42,-9.77 34.12,0 64.22,7.3 90.26,21.88 26.07,14.55 44.33,33.63 54.89,57.23 h 1.87 v -67.94 h 83.73 v 441.04 h -83.73 v -227.05"
         style="fill:#313334;fill-opacity:1;fill-rule:nonzero;stroke:none"
         transform="matrix(0.13333333,0,0,-0.13333333,0,518.44)" />
      <path
         id="path13"
         d="m 4525.38,1198.93 c -16.14,0 -28.38,2.94 -36.75,8.84 -8.37,5.87 -14.58,13.64 -18.61,23.26 -4.03,9.61 -6.37,20.48 -6.96,32.56 -0.63,12.09 -0.94,24.32 -0.94,36.75 v 200.04 h 120.02 v 72.59 h -120.02 v 123.76 h -83.73 v -123.76 h -96.79 v -72.59 h 96.79 v -229.83 c 0,-17.98 0.74,-35.8 2.3,-53.48 1.54,-17.67 6.53,-33.65 14.9,-47.92 8.37,-14.27 21.38,-25.92 39.09,-34.88 17.67,-8.99 42.61,-13.51 74.9,-13.51 8.68,0 20.92,1.09 36.75,3.27 15.79,2.19 28.69,6.03 38.62,11.62 v 76.3 c -8.71,-4.96 -18.33,-8.36 -28.85,-10.24 -10.56,-1.84 -20.79,-2.78 -30.72,-2.78"
         style="fill:#313334;fill-opacity:1;fill-rule:nonzero;stroke:none"
         transform="matrix(0.13333333,0,0,-0.13333333,0,518.44)" />
      <path
         id="path14"
         d="m 4637.03,1131.93 h 83.73 v 441.04 h -83.73 v -441.04"
         style="fill:#313334;fill-opacity:1;fill-rule:nonzero;stroke:none"
         transform="matrix(0.13333333,0,0,-0.13333333,0,518.44)" />
      <path
         id="path15"
         d="m 4678.89,1738.6 c -12.56,0 -23.39,-4.55 -32.48,-13.62 -9.07,-9.07 -13.62,-19.9 -13.62,-32.48 0,-12.57 4.55,-23.4 13.62,-32.47 9.09,-9.09 19.92,-13.64 32.48,-13.64 12.59,0 23.42,4.55 32.49,13.64 9.07,9.07 13.62,19.9 13.62,32.47 0,12.58 -4.55,23.41 -13.62,32.48 -9.07,9.07 -19.9,13.62 -32.49,13.62"
         style="fill:#313334;fill-opacity:1;fill-rule:nonzero;stroke:none"
         transform="matrix(0.13333333,0,0,-0.13333333,0,518.44)" />
      <path
         id="path16"
         d="m 5142.25,1290.57 c -6.83,-18.92 -16.42,-35.03 -28.84,-48.4 -12.4,-13.33 -27.61,-23.88 -45.59,-31.62 -17.98,-7.74 -38.15,-11.62 -60.48,-11.62 -22.32,0 -42.49,3.88 -60.47,11.62 -17.99,7.74 -33.19,18.29 -45.59,31.62 -12.42,13.37 -22.04,29.48 -28.84,48.4 -6.84,18.92 -10.24,39.56 -10.24,61.88 0,22.32 3.4,42.96 10.24,61.88 6.8,18.92 16.42,35.03 28.84,48.36 12.4,13.33 27.6,23.89 45.59,31.66 17.98,7.74 38.15,11.62 60.47,11.62 22.33,0 42.5,-3.88 60.48,-11.62 17.98,-7.77 33.19,-18.33 45.59,-31.66 12.42,-13.33 22.01,-29.44 28.84,-48.36 6.84,-18.92 10.24,-39.56 10.24,-61.88 0,-22.32 -3.4,-42.96 -10.24,-61.88 z m 31.66,225.64 c -21.1,21.07 -45.93,37.68 -74.46,49.77 -28.54,12.11 -59.23,18.17 -92.11,18.17 -32.87,0 -63.59,-6.06 -92.1,-18.17 -28.53,-12.09 -53.36,-28.7 -74.43,-49.77 -21.11,-21.11 -37.69,-45.58 -49.8,-73.5 -12.08,-27.91 -18.14,-58.01 -18.14,-90.26 0,-32.25 6.06,-62.51 18.14,-90.73 12.11,-28.22 28.69,-52.73 49.8,-73.5 21.07,-20.79 45.9,-37.21 74.43,-49.3 28.51,-12.11 59.23,-18.16 92.1,-18.16 32.88,0 63.57,6.05 92.11,18.16 28.53,12.09 53.36,28.51 74.46,49.3 21.08,20.77 37.69,45.28 49.77,73.5 12.08,28.22 18.14,58.48 18.14,90.73 0,32.25 -6.06,62.35 -18.14,90.26 -12.08,27.92 -28.69,52.39 -49.77,73.5"
         style="fill:#313334;fill-opacity:1;fill-rule:nonzero;stroke:none"
         transform="matrix(0.13333333,0,0,-0.13333333,0,518.44)" />
      <path
         id="path17"
         d="m 5630.28,1544.12 c -14.58,13.64 -31.63,23.73 -51.17,30.25 -19.52,6.5 -39.84,9.78 -60.95,9.78 -34.12,0 -64.19,-7.31 -90.23,-21.89 -26.07,-14.58 -44.36,-33.66 -54.92,-57.23 h -1.84 v 67.94 h -83.74 v -441.04 h 83.74 v 227.05 c 0,25.41 3.09,47.42 9.31,66.06 6.18,18.61 14.89,33.94 26.03,46.05 11.18,12.09 24.2,20.92 39.09,26.51 14.89,5.59 31.01,8.37 48.37,8.37 13.05,0 25.6,-2 37.68,-6.03 12.11,-4.06 22.82,-10.55 32.13,-19.54 9.3,-9.03 16.73,-20.8 22.32,-35.38 5.59,-14.58 8.37,-32.09 8.37,-52.58 v -260.51 h 83.74 v 283.81 c 0,29.13 -4.34,54.42 -13.02,75.8 -8.69,21.42 -20.33,38.94 -34.91,52.58"
         style="fill:#313334;fill-opacity:1;fill-rule:nonzero;stroke:none"
         transform="matrix(0.13333333,0,0,-0.13333333,0,518.44)" />
      <path
         id="path18"
         d="m 6020.14,1347.8 c -11.49,9.93 -25.13,17.98 -40.93,24.19 -15.83,6.19 -32.75,11.46 -50.73,15.8 -9.31,1.88 -20.45,4.03 -33.47,6.53 -13.05,2.46 -25.29,6.18 -36.78,11.17 -11.46,4.94 -21.39,11.46 -29.76,19.55 -8.36,8.02 -12.58,18.61 -12.58,31.63 0,16.11 7.31,28.38 21.89,36.75 14.55,8.36 31.78,12.55 51.64,12.55 21.07,0 38.9,-4.19 53.48,-12.55 14.58,-8.37 26.82,-18.77 36.78,-31.16 l 65.13,49.3 c -16.14,26.07 -37.84,44.67 -65.13,55.82 -27.32,11.18 -55.86,16.77 -85.61,16.77 -20.48,0 -40.8,-2.81 -60.94,-8.4 -20.17,-5.56 -38.16,-13.96 -53.99,-25.11 -15.79,-11.17 -28.53,-25.28 -38.15,-42.33 -9.62,-17.08 -14.42,-37.09 -14.42,-60.01 0,-21.1 3.74,-38.78 11.17,-53.04 7.47,-14.27 17.36,-26.07 29.79,-35.38 12.39,-9.3 26.66,-16.73 42.8,-22.32 16.12,-5.59 33.16,-10.56 51.18,-14.9 9.3,-1.84 19.98,-4.18 32.09,-6.96 12.09,-2.81 23.58,-6.52 34.44,-11.17 10.83,-4.66 20.14,-11.03 27.91,-19.08 7.75,-8.06 11.62,-18.3 11.62,-30.69 0,-9.31 -2.66,-17.55 -7.9,-24.67 -5.28,-7.15 -12.12,-13.02 -20.48,-17.67 -8.37,-4.65 -17.99,-8.09 -28.85,-10.24 -10.87,-2.19 -21.55,-3.25 -32.1,-3.25 -24.2,0 -44.65,5.25 -61.41,15.8 -16.74,10.55 -31.94,22.64 -45.59,36.31 l -63.28,-52.11 c 21.73,-29.78 46.36,-50.26 73.99,-61.41 27.57,-11.18 59.7,-16.76 96.29,-16.76 21.7,0 43.27,2.49 64.66,7.46 21.42,4.96 40.5,13.02 57.23,24.19 16.77,11.15 30.38,25.57 40.93,43.24 10.55,17.71 15.83,38.94 15.83,63.76 0,20.45 -3.24,37.81 -9.77,52.11 -6.49,14.27 -15.52,26.35 -26.98,36.28"
         style="fill:#313334;fill-opacity:1;fill-rule:nonzero;stroke:none"
         transform="matrix(0.13333333,0,0,-0.13333333,0,518.44)" />
    </g>
  </g>
</svg>
